<svg width="120" height="60" viewBox="0 0 120 60" fill="none" xmlns="http://www.w3.org/2000/svg">
  <!-- Mavi kısım -->
  <rect x="0" y="0" width="60" height="60" fill="#1E90FF"/>
  
  <!-- Kırmızı kısım -->
  <rect x="60" y="0" width="30" height="60" fill="#FF4444"/>
  
  <!-- Yeşil kısım -->
  <rect x="90" y="0" width="30" height="60" fill="#00AA44"/>
  
  <!-- WU harfleri beyaz -->
  <g fill="white">
    <!-- W harfi -->
    <path d="M10 15 L15 45 L20 25 L25 45 L30 15 L27 15 L24 35 L22 20 L20 35 L17 15 Z"/>
    <!-- U harfi -->
    <path d="M35 15 L35 35 Q35 45 45 45 Q55 45 55 35 L55 15 L50 15 L50 35 Q50 40 45 40 Q40 40 40 35 L40 15 Z"/>
  </g>
  
  <!-- CASPIAN yazısı -->
  <text x="10" y="55" font-family="Arial, sans-serif" font-size="6" font-weight="bold" fill="white">CASPIAN</text>
  
  <!-- 1950 yazısı -->
  <text x="95" y="55" font-family="Arial, sans-serif" font-size="6" font-weight="normal" fill="white">1950</text>
</svg>